<svg width="135" height="145" viewBox="0 0 135 145" fill="none" xmlns="http://www.w3.org/2000/svg">
<rect width="135" height="145" rx="4" fill="#D9D9D9"/>
<path d="M25.521 63.2C21.6939 48.19 20.5267 30.1943 26.4167 28.1314C32.3067 26.0686 45.5795 40.5086 48.8095 43.7386" fill="url(#paint0_linear_27_975)"/>
<path d="M43.4088 48.0006C31.466 28.4035 27.5574 30.1678 27.1774 30.3035C25.1146 31.0363 24.5989 37.2249 24.626 40.7806C24.6531 46.9963 25.7931 54.9492 27.7474 62.6306" fill="url(#paint1_radial_27_975)"/>
<path d="M110.478 63.2C114.305 48.1629 115.499 30.1943 109.582 28.1314C103.692 26.0686 90.419 40.5086 87.189 43.7386" fill="url(#paint2_linear_27_975)"/>
<path d="M92.5908 48.0006C104.534 28.4035 108.442 30.1678 108.822 30.3035C110.885 31.0363 111.401 37.2249 111.374 40.7806C111.347 46.9963 110.207 54.9492 108.252 62.6306" fill="url(#paint3_radial_27_975)"/>
<path d="M100.165 101.988C106.435 96.3426 112.433 91.8367 112.433 76.3655C112.433 43.9838 83.6347 33.4253 68.0001 33.4253C52.366 33.4253 23.5674 43.9838 23.5674 76.3926C23.5674 91.2667 29.2131 95.7455 35.1303 101.337C41.536 107.417 93.8947 107.634 100.165 101.988Z" fill="url(#paint4_radial_27_975)"/>
<path d="M44.874 39.6138L44.7383 39.8853C44.7383 39.8853 66.9413 65.2096 57.2783 76.7455C47.6426 88.2809 67.9996 100.115 67.9996 100.115C67.9996 100.115 88.3567 88.2538 78.6942 76.7179C69.0313 65.2096 91.2342 39.8853 91.2342 39.8853L90.9355 39.5053C83.0096 35.1896 74.4055 33.4253 67.9996 33.4253C61.5396 33.4253 52.8812 35.2167 44.874 39.6138Z" fill="url(#paint5_radial_27_975)"/>
<path d="M28.2088 78.0479C28.2088 56.7679 44.6846 48.3808 39.9617 42.7351C30.8146 49.4122 23.5674 60.1608 23.5674 76.3921C23.5674 91.2667 29.2131 95.745 35.1303 101.337C36.8131 102.911 41.6174 104.105 47.9146 104.892C38.7946 98.3509 28.2088 90.7238 28.2088 78.0479Z" fill="url(#paint6_linear_27_975)"/>
<path d="M50.5472 45.3118C50.5201 45.4746 50.493 45.6646 50.4658 45.8275C50.5201 45.6104 50.5472 45.4204 50.5472 45.3118Z" fill="url(#paint7_radial_27_975)"/>
<path d="M107.764 78.0479C107.764 56.7679 91.2884 48.3808 96.0113 42.7351C105.185 49.4122 112.433 60.1608 112.433 76.3921C112.433 91.2667 106.787 95.745 100.87 101.337C99.1872 102.911 94.3825 104.105 88.0854 104.892C97.2054 98.3509 107.764 90.7238 107.764 78.0479Z" fill="url(#paint8_linear_27_975)"/>
<path d="M90.8261 84.3711C82.3578 84.3711 77.3907 71.6411 67.999 71.6411C58.6078 71.6411 53.6677 84.3711 45.172 84.3711C36.7034 84.3711 29.3206 91.564 35.1291 101.335C51.0891 116.481 48.1034 107.442 67.999 118.218C78.5307 112.518 82.5749 118.679 100.869 101.335C106.678 91.564 99.2949 84.3711 90.8261 84.3711Z" fill="url(#paint9_linear_27_975)"/>
<path d="M82.1682 100.766L67.9994 94.1433L53.831 100.766C50.5467 108.04 67.9994 114.69 67.9994 114.69C67.9994 114.69 85.4524 108.067 82.1682 100.766Z" fill="url(#paint10_linear_27_975)"/>
<path d="M74.5412 103.697C74.5412 107.307 71.6095 110.238 67.9995 110.238C64.3895 110.238 61.4583 107.307 61.4583 103.697C61.4583 92.9755 64.3895 88.6602 67.9995 88.6602C71.6095 88.6602 74.5412 93.0031 74.5412 103.697Z" fill="url(#paint11_linear_27_975)"/>
<path d="M74.5412 103.697C74.5412 93.0031 71.6095 88.6602 67.9995 88.6602C64.3895 88.6602 61.4583 92.9485 61.4583 103.697C61.4583 103.968 61.4853 104.213 61.5124 104.457C62.8153 103.968 63.9283 103.344 64.8783 102.611C66.7241 101.173 69.2753 101.173 71.1212 102.611C72.0712 103.344 73.2112 103.968 74.487 104.457C74.5141 104.213 74.5412 103.941 74.5412 103.697Z" fill="url(#paint12_linear_27_975)"/>
<path d="M66.9958 96.1239C66.9958 93.301 67.4571 91.021 68 91.021C68.5429 91.021 69.0041 93.301 69.0041 96.1239C69.0041 104.511 68.5429 107.85 68 107.85C67.4571 107.85 66.9958 104.484 66.9958 96.1239Z" fill="url(#paint13_linear_27_975)"/>
<path d="M74.0525 80.1103H61.9196C48.5383 78.0474 44.7383 85.0233 44.7383 90.3703C44.7383 96.8033 47.9683 103.046 54.1026 103.046C62.1096 103.046 67.9725 99.2462 67.9725 94.1433C67.9725 99.2462 73.8354 103.046 81.8425 103.046C88.0042 103.046 91.2067 96.8033 91.2067 90.3703C91.2342 84.9962 87.4613 78.0203 74.0525 80.1103Z" fill="url(#paint14_linear_27_975)"/>
<path d="M86.3482 77.2884C88.6714 77.2884 90.5553 74.9552 90.5553 72.0767C90.5553 69.1987 88.6714 66.8655 86.3482 66.8655C84.0245 66.8655 82.1411 69.1987 82.1411 72.0767C82.1411 74.9552 84.0245 77.2884 86.3482 77.2884Z" fill="url(#paint15_radial_27_975)"/>
<path d="M49.6239 77.2884C51.9474 77.2884 53.831 74.9552 53.831 72.0767C53.831 69.1987 51.9474 66.8655 49.6239 66.8655C47.3003 66.8655 45.4167 69.1987 45.4167 72.0767C45.4167 74.9552 47.3003 77.2884 49.6239 77.2884Z" fill="url(#paint16_radial_27_975)"/>
<path d="M85.5341 71.8581C86.2685 71.8581 86.8641 71.1171 86.8641 70.2027C86.8641 69.2884 86.2685 68.5469 85.5341 68.5469C84.7993 68.5469 84.2041 69.2884 84.2041 70.2027C84.2041 71.1171 84.7993 71.8581 85.5341 71.8581Z" fill="url(#paint17_linear_27_975)"/>
<path d="M48.8097 71.8581C49.5443 71.8581 50.1397 71.1171 50.1397 70.2027C50.1397 69.2884 49.5443 68.5469 48.8097 68.5469C48.0752 68.5469 47.4797 69.2884 47.4797 70.2027C47.4797 71.1171 48.0752 71.8581 48.8097 71.8581Z" fill="url(#paint18_linear_27_975)"/>
<path d="M82.412 101.986C72.8037 101.986 71.012 97.0463 71.012 93.8434C71.012 92.1334 77.1737 88.7134 77.1737 84.8863C77.1737 81.9005 69.2207 83.7734 67.999 90.8034C66.7778 83.7463 58.8249 81.9005 58.8249 84.8863C58.8249 88.7134 64.9861 92.1063 64.9861 93.8434C64.9861 97.0734 63.1407 102.963 53.5863 101.986C46.312 101.253 44.7649 90.3692 44.7649 90.3692C44.7649 96.8022 47.9949 103.045 54.1292 103.045C61.4037 103.045 66.8861 99.9234 67.8637 95.5263C67.9178 95.2546 67.972 94.9834 67.999 94.6846C68.0537 94.9563 68.0807 95.2275 68.1349 95.5263C69.0849 99.9234 74.5949 103.045 81.869 103.045C88.0307 103.045 91.2337 96.8022 91.2337 90.3692C91.2337 88.5234 90.392 101.986 82.412 101.986Z" fill="url(#paint19_radial_27_975)"/>
<path d="M76.8755 84.02C73.4284 80.1659 62.5984 80.1659 59.1242 84.02C57.3327 86.0288 63.7113 93.0588 67.9996 93.0588C72.2884 93.0588 78.6672 86.0288 76.8755 84.02Z" fill="url(#paint20_linear_27_975)"/>
<path d="M74.1882 83.7197C71.7729 82.2539 64.1999 82.2539 61.7841 83.7197C60.5353 84.4797 64.987 86.2168 67.9729 86.2168C70.9582 86.2168 75.4641 84.4797 74.1882 83.7197Z" fill="url(#paint21_linear_27_975)"/>
<path d="M80.187 86.5688C98.78 87.383 113.98 98.4305 113.98 98.4305C113.98 98.4305 100.273 86.2976 79.97 86.053L80.187 86.5688Z" fill="url(#paint22_linear_27_975)"/>
<path d="M79.942 87.982C96.662 92.352 108.577 105.299 108.577 105.299C108.577 105.299 97.7203 91.4837 79.8333 87.4937L79.942 87.982Z" fill="url(#paint23_linear_27_975)"/>
<path d="M79.9966 84.5078C96.9066 82.3908 114.142 90.7237 114.142 90.7237C114.142 90.7237 97.8024 81.0608 79.7253 84.1008L79.9966 84.5078Z" fill="url(#paint24_linear_27_975)"/>
<path d="M55.8131 86.5688C37.2203 87.383 22.0203 98.4305 22.0203 98.4305C22.0203 98.4305 35.7274 86.2976 56.0303 86.053L55.8131 86.5688Z" fill="url(#paint25_linear_27_975)"/>
<path d="M56.0566 87.982C39.3366 92.352 27.4209 105.299 27.4209 105.299C27.4209 105.299 38.278 91.4837 56.1652 87.4937L56.0566 87.982Z" fill="url(#paint26_linear_27_975)"/>
<path d="M56.0024 84.5078C39.0924 82.3908 21.8567 90.7237 21.8567 90.7237C21.8567 90.7237 38.1967 81.0608 56.2739 84.1008L56.0024 84.5078Z" fill="url(#paint27_linear_27_975)"/>
<path d="M48.3203 37.9038C58.4989 39.8853 57.5761 58.4781 67.9989 58.4781C78.4219 58.4781 77.526 39.8853 87.6772 37.9038C81.0272 34.891 74.1602 33.561 68.7319 33.4253C68.4872 33.4253 68.216 33.4253 67.9719 33.4253C67.7272 33.4253 67.4831 33.4253 67.2119 33.4253C61.8102 33.561 54.9703 34.891 48.3203 37.9038Z" fill="url(#paint28_linear_27_975)"/>
<rect width="135" height="145" rx="4" fill="black" fill-opacity="0.4"/>
<path d="M26.2344 60.6641V62.625H18.4375V60.6641H26.2344ZM23.4062 57.5781V65.8594H21.2734V57.5781H23.4062ZM38.3125 63.2266H40.6484C40.6016 63.9922 40.3906 64.6719 40.0156 65.2656C39.6458 65.8594 39.1276 66.3229 38.4609 66.6562C37.7995 66.9896 37.0026 67.1562 36.0703 67.1562C35.3411 67.1562 34.6875 67.0312 34.1094 66.7812C33.5312 66.526 33.0365 66.1615 32.625 65.6875C32.2188 65.2135 31.9089 64.6406 31.6953 63.9688C31.4818 63.2969 31.375 62.5443 31.375 61.7109V60.9219C31.375 60.0885 31.4844 59.3359 31.7031 58.6641C31.9271 57.987 32.2448 57.4115 32.6562 56.9375C33.0729 56.4635 33.5703 56.099 34.1484 55.8438C34.7266 55.5885 35.3724 55.4609 36.0859 55.4609C37.0339 55.4609 37.8333 55.6328 38.4844 55.9766C39.1406 56.3203 39.6484 56.7943 40.0078 57.3984C40.3724 58.0026 40.5911 58.6901 40.6641 59.4609H38.3203C38.2943 59.0026 38.2031 58.6146 38.0469 58.2969C37.8906 57.974 37.6536 57.7318 37.3359 57.5703C37.0234 57.4036 36.6068 57.3203 36.0859 57.3203C35.6953 57.3203 35.3542 57.3932 35.0625 57.5391C34.7708 57.6849 34.526 57.9062 34.3281 58.2031C34.1302 58.5 33.9818 58.875 33.8828 59.3281C33.7891 59.776 33.7422 60.3021 33.7422 60.9062V61.7109C33.7422 62.2995 33.7865 62.8177 33.875 63.2656C33.9635 63.7083 34.099 64.0833 34.2812 64.3906C34.4688 64.6927 34.7083 64.9219 35 65.0781C35.2969 65.2292 35.6536 65.3047 36.0703 65.3047C36.5599 65.3047 36.9635 65.2266 37.2812 65.0703C37.599 64.9141 37.8411 64.6823 38.0078 64.375C38.1797 64.0677 38.2812 63.6849 38.3125 63.2266ZM44.4219 55V67H42.1641V55H44.4219ZM48.6562 58.5469V67H46.3984V58.5469H48.6562ZM46.2578 56.3438C46.2578 56.0156 46.3724 55.7448 46.6016 55.5312C46.8307 55.3177 47.138 55.2109 47.5234 55.2109C47.9036 55.2109 48.2083 55.3177 48.4375 55.5312C48.6719 55.7448 48.7891 56.0156 48.7891 56.3438C48.7891 56.6719 48.6719 56.9427 48.4375 57.1562C48.2083 57.3698 47.9036 57.4766 47.5234 57.4766C47.138 57.4766 46.8307 57.3698 46.6016 57.1562C46.3724 56.9427 46.2578 56.6719 46.2578 56.3438ZM55.5078 70.25V60.2734L55.7969 58.5469H57.7734V70.25H55.5078ZM50.1641 62.8594V62.6953C50.1641 62.0495 50.2344 61.4635 50.375 60.9375C50.5208 60.4062 50.7344 59.9531 51.0156 59.5781C51.2969 59.1979 51.6406 58.9062 52.0469 58.7031C52.4583 58.4948 52.9323 58.3906 53.4688 58.3906C53.9844 58.3906 54.4297 58.4948 54.8047 58.7031C55.1797 58.9115 55.4948 59.2057 55.75 59.5859C56.0104 59.9661 56.2188 60.4141 56.375 60.9297C56.5312 61.4453 56.651 62.0104 56.7344 62.625V62.9844C56.6562 63.5729 56.5365 64.1198 56.375 64.625C56.2188 65.1302 56.0104 65.5729 55.75 65.9531C55.4948 66.3333 55.1771 66.6302 54.7969 66.8438C54.4219 67.0521 53.974 67.1562 53.4531 67.1562C52.9271 67.1562 52.4583 67.0495 52.0469 66.8359C51.6406 66.6172 51.2969 66.3151 51.0156 65.9297C50.7344 65.5443 50.5208 65.0911 50.375 64.5703C50.2344 64.0443 50.1641 63.474 50.1641 62.8594ZM52.4141 62.6953V62.8594C52.4141 63.2083 52.4427 63.5365 52.5 63.8438C52.5573 64.1458 52.6484 64.4141 52.7734 64.6484C52.9036 64.8828 53.0703 65.0677 53.2734 65.2031C53.4766 65.3333 53.7266 65.3984 54.0234 65.3984C54.4349 65.3984 54.7656 65.3099 55.0156 65.1328C55.2708 64.9505 55.4583 64.7031 55.5781 64.3906C55.7031 64.0781 55.776 63.7214 55.7969 63.3203V62.2969C55.7812 61.9688 55.737 61.6745 55.6641 61.4141C55.5964 61.1484 55.4922 60.9219 55.3516 60.7344C55.2161 60.5469 55.0391 60.4036 54.8203 60.3047C54.6068 60.2005 54.3464 60.1484 54.0391 60.1484C53.7474 60.1484 53.4974 60.2135 53.2891 60.3438C53.0807 60.474 52.9115 60.6562 52.7812 60.8906C52.6562 61.1198 52.5625 61.388 52.5 61.6953C52.4427 62.0026 52.4141 62.3359 52.4141 62.6953ZM64.5469 64.9766V58.5469H66.7969V67H64.6797L64.5469 64.9766ZM64.7969 63.2422L65.4609 63.2266C65.4609 63.7891 65.3958 64.3125 65.2656 64.7969C65.1354 65.276 64.9401 65.6927 64.6797 66.0469C64.4193 66.3958 64.0911 66.6693 63.6953 66.8672C63.2995 67.0599 62.8333 67.1562 62.2969 67.1562C61.8854 67.1562 61.5052 67.099 61.1562 66.9844C60.8125 66.8646 60.5156 66.6797 60.2656 66.4297C60.0208 66.1745 59.8281 65.849 59.6875 65.4531C59.5521 65.0521 59.4844 64.5703 59.4844 64.0078V58.5469H61.7344V64.0234C61.7344 64.2734 61.763 64.4844 61.8203 64.6562C61.8828 64.8281 61.9688 64.9688 62.0781 65.0781C62.1875 65.1875 62.3151 65.2656 62.4609 65.3125C62.612 65.3594 62.7786 65.3828 62.9609 65.3828C63.4245 65.3828 63.7891 65.2891 64.0547 65.1016C64.3255 64.9141 64.5156 64.6589 64.625 64.3359C64.7396 64.0078 64.7969 63.6432 64.7969 63.2422ZM72.4062 67.1562C71.75 67.1562 71.1615 67.0521 70.6406 66.8438C70.1198 66.6302 69.6771 66.3359 69.3125 65.9609C68.9531 65.5859 68.6771 65.151 68.4844 64.6562C68.2917 64.1562 68.1953 63.625 68.1953 63.0625V62.75C68.1953 62.1094 68.2865 61.5234 68.4688 60.9922C68.651 60.4609 68.9115 60 69.25 59.6094C69.5938 59.2188 70.0104 58.9193 70.5 58.7109C70.9896 58.4974 71.5417 58.3906 72.1562 58.3906C72.7552 58.3906 73.2865 58.4896 73.75 58.6875C74.2135 58.8854 74.6016 59.1667 74.9141 59.5312C75.2318 59.8958 75.4714 60.3333 75.6328 60.8438C75.7943 61.349 75.875 61.9115 75.875 62.5312V63.4688H69.1562V61.9688H73.6641V61.7969C73.6641 61.4844 73.6068 61.2057 73.4922 60.9609C73.3828 60.7109 73.2161 60.513 72.9922 60.3672C72.7682 60.2214 72.4818 60.1484 72.1328 60.1484C71.8359 60.1484 71.5807 60.2135 71.3672 60.3438C71.1536 60.474 70.9792 60.6562 70.8438 60.8906C70.7135 61.125 70.6146 61.401 70.5469 61.7188C70.4844 62.0312 70.4531 62.375 70.4531 62.75V63.0625C70.4531 63.401 70.5 63.7135 70.5938 64C70.6927 64.2865 70.8307 64.5339 71.0078 64.7422C71.1901 64.9505 71.4089 65.112 71.6641 65.2266C71.9245 65.3411 72.2188 65.3984 72.5469 65.3984C72.9531 65.3984 73.3307 65.3203 73.6797 65.1641C74.0339 65.0026 74.3385 64.7604 74.5938 64.4375L75.6875 65.625C75.5104 65.8802 75.2682 66.125 74.9609 66.3594C74.6589 66.5938 74.2943 66.7865 73.8672 66.9375C73.4401 67.0833 72.9531 67.1562 72.4062 67.1562ZM83.3906 60.1719V70.25H81.1406V58.5469H83.2266L83.3906 60.1719ZM88.7422 62.6797V62.8438C88.7422 63.4583 88.6693 64.0286 88.5234 64.5547C88.3828 65.0807 88.1745 65.5391 87.8984 65.9297C87.6224 66.3151 87.2786 66.6172 86.8672 66.8359C86.4609 67.0495 85.9922 67.1562 85.4609 67.1562C84.9453 67.1562 84.4974 67.0521 84.1172 66.8438C83.737 66.6354 83.4167 66.3438 83.1562 65.9688C82.901 65.5885 82.6953 65.1484 82.5391 64.6484C82.3828 64.1484 82.263 63.612 82.1797 63.0391V62.6094C82.263 61.9948 82.3828 61.4323 82.5391 60.9219C82.6953 60.4062 82.901 59.9609 83.1562 59.5859C83.4167 59.2057 83.7344 58.9115 84.1094 58.7031C84.4896 58.4948 84.9349 58.3906 85.4453 58.3906C85.9818 58.3906 86.4531 58.4922 86.8594 58.6953C87.2708 58.8984 87.6146 59.1901 87.8906 59.5703C88.1719 59.9505 88.3828 60.4036 88.5234 60.9297C88.6693 61.4557 88.7422 62.0391 88.7422 62.6797ZM86.4844 62.8438V62.6797C86.4844 62.3203 86.4531 61.9896 86.3906 61.6875C86.3333 61.3802 86.2396 61.112 86.1094 60.8828C85.9844 60.6536 85.8177 60.4766 85.6094 60.3516C85.4062 60.2214 85.1589 60.1562 84.8672 60.1562C84.5599 60.1562 84.2969 60.2057 84.0781 60.3047C83.8646 60.4036 83.6901 60.5469 83.5547 60.7344C83.4193 60.9219 83.3177 61.1458 83.25 61.4062C83.1823 61.6667 83.1406 61.9609 83.125 62.2891V63.375C83.151 63.7604 83.224 64.1068 83.3438 64.4141C83.4635 64.7161 83.6484 64.9557 83.8984 65.1328C84.1484 65.3099 84.4766 65.3984 84.8828 65.3984C85.1797 65.3984 85.4297 65.3333 85.6328 65.2031C85.8359 65.0677 86 64.8828 86.125 64.6484C86.2552 64.4141 86.3464 64.1432 86.3984 63.8359C86.4557 63.5286 86.4844 63.1979 86.4844 62.8438ZM94.7031 65.0938V61.3281C94.7031 61.0573 94.6589 60.8255 94.5703 60.6328C94.4818 60.4349 94.3438 60.2812 94.1562 60.1719C93.974 60.0625 93.737 60.0078 93.4453 60.0078C93.1953 60.0078 92.9792 60.0521 92.7969 60.1406C92.6146 60.224 92.474 60.3464 92.375 60.5078C92.276 60.6641 92.2266 60.849 92.2266 61.0625H89.9766C89.9766 60.7031 90.0599 60.362 90.2266 60.0391C90.3932 59.7161 90.6354 59.4323 90.9531 59.1875C91.2708 58.9375 91.6484 58.7422 92.0859 58.6016C92.5286 58.4609 93.0234 58.3906 93.5703 58.3906C94.2266 58.3906 94.8099 58.5 95.3203 58.7188C95.8307 58.9375 96.2318 59.2656 96.5234 59.7031C96.8203 60.1406 96.9688 60.6875 96.9688 61.3438V64.9609C96.9688 65.4245 96.9974 65.8047 97.0547 66.1016C97.112 66.3932 97.1953 66.6484 97.3047 66.8672V67H95.0312C94.9219 66.7708 94.8385 66.4844 94.7812 66.1406C94.7292 65.7917 94.7031 65.4427 94.7031 65.0938ZM95 61.8516L95.0156 63.125H93.7578C93.4609 63.125 93.2031 63.1589 92.9844 63.2266C92.7656 63.2943 92.5859 63.3906 92.4453 63.5156C92.3047 63.6354 92.2005 63.776 92.1328 63.9375C92.0703 64.099 92.0391 64.276 92.0391 64.4688C92.0391 64.6615 92.0833 64.8359 92.1719 64.9922C92.2604 65.1432 92.388 65.263 92.5547 65.3516C92.7214 65.4349 92.9167 65.4766 93.1406 65.4766C93.4792 65.4766 93.7734 65.4089 94.0234 65.2734C94.2734 65.138 94.4661 64.9714 94.6016 64.7734C94.7422 64.5755 94.8151 64.388 94.8203 64.2109L95.4141 65.1641C95.3307 65.3776 95.2161 65.599 95.0703 65.8281C94.9297 66.0573 94.75 66.2734 94.5312 66.4766C94.3125 66.6745 94.0495 66.8385 93.7422 66.9688C93.4349 67.0938 93.0703 67.1562 92.6484 67.1562C92.112 67.1562 91.625 67.0495 91.1875 66.8359C90.7552 66.6172 90.4115 66.3177 90.1562 65.9375C89.9062 65.5521 89.7812 65.1146 89.7812 64.625C89.7812 64.1823 89.8646 63.7891 90.0312 63.4453C90.1979 63.1016 90.4427 62.8125 90.7656 62.5781C91.0938 62.3385 91.5026 62.1589 91.9922 62.0391C92.4818 61.9141 93.0495 61.8516 93.6953 61.8516H95ZM100.953 60.3906V67H98.7031V58.5469H100.82L100.953 60.3906ZM103.5 58.4922L103.461 60.5781C103.352 60.5625 103.219 60.5495 103.062 60.5391C102.911 60.5234 102.773 60.5156 102.648 60.5156C102.331 60.5156 102.055 60.5573 101.82 60.6406C101.591 60.7188 101.398 60.8359 101.242 60.9922C101.091 61.1484 100.977 61.3385 100.898 61.5625C100.826 61.7865 100.784 62.0417 100.773 62.3281L100.32 62.1875C100.32 61.6406 100.375 61.138 100.484 60.6797C100.594 60.2161 100.753 59.8125 100.961 59.4688C101.174 59.125 101.435 58.8594 101.742 58.6719C102.049 58.4844 102.401 58.3906 102.797 58.3906C102.922 58.3906 103.049 58.401 103.18 58.4219C103.31 58.4375 103.417 58.4609 103.5 58.4922ZM108.859 65.0938V61.3281C108.859 61.0573 108.815 60.8255 108.727 60.6328C108.638 60.4349 108.5 60.2812 108.312 60.1719C108.13 60.0625 107.893 60.0078 107.602 60.0078C107.352 60.0078 107.135 60.0521 106.953 60.1406C106.771 60.224 106.63 60.3464 106.531 60.5078C106.432 60.6641 106.383 60.849 106.383 61.0625H104.133C104.133 60.7031 104.216 60.362 104.383 60.0391C104.549 59.7161 104.792 59.4323 105.109 59.1875C105.427 58.9375 105.805 58.7422 106.242 58.6016C106.685 58.4609 107.18 58.3906 107.727 58.3906C108.383 58.3906 108.966 58.5 109.477 58.7188C109.987 58.9375 110.388 59.2656 110.68 59.7031C110.977 60.1406 111.125 60.6875 111.125 61.3438V64.9609C111.125 65.4245 111.154 65.8047 111.211 66.1016C111.268 66.3932 111.352 66.6484 111.461 66.8672V67H109.188C109.078 66.7708 108.995 66.4844 108.938 66.1406C108.885 65.7917 108.859 65.4427 108.859 65.0938ZM109.156 61.8516L109.172 63.125H107.914C107.617 63.125 107.359 63.1589 107.141 63.2266C106.922 63.2943 106.742 63.3906 106.602 63.5156C106.461 63.6354 106.357 63.776 106.289 63.9375C106.227 64.099 106.195 64.276 106.195 64.4688C106.195 64.6615 106.24 64.8359 106.328 64.9922C106.417 65.1432 106.544 65.263 106.711 65.3516C106.878 65.4349 107.073 65.4766 107.297 65.4766C107.635 65.4766 107.93 65.4089 108.18 65.2734C108.43 65.138 108.622 64.9714 108.758 64.7734C108.898 64.5755 108.971 64.388 108.977 64.2109L109.57 65.1641C109.487 65.3776 109.372 65.599 109.227 65.8281C109.086 66.0573 108.906 66.2734 108.688 66.4766C108.469 66.6745 108.206 66.8385 107.898 66.9688C107.591 67.0938 107.227 67.1562 106.805 67.1562C106.268 67.1562 105.781 67.0495 105.344 66.8359C104.911 66.6172 104.568 66.3177 104.312 65.9375C104.062 65.5521 103.938 65.1146 103.938 64.625C103.938 64.1823 104.021 63.7891 104.188 63.4453C104.354 63.1016 104.599 62.8125 104.922 62.5781C105.25 62.3385 105.659 62.1589 106.148 62.0391C106.638 61.9141 107.206 61.8516 107.852 61.8516H109.156ZM23.4375 89.0938V85.3281C23.4375 85.0573 23.3932 84.8255 23.3047 84.6328C23.2161 84.4349 23.0781 84.2812 22.8906 84.1719C22.7083 84.0625 22.4714 84.0078 22.1797 84.0078C21.9297 84.0078 21.7135 84.0521 21.5312 84.1406C21.349 84.224 21.2083 84.3464 21.1094 84.5078C21.0104 84.6641 20.9609 84.849 20.9609 85.0625H18.7109C18.7109 84.7031 18.7943 84.362 18.9609 84.0391C19.1276 83.7161 19.3698 83.4323 19.6875 83.1875C20.0052 82.9375 20.3828 82.7422 20.8203 82.6016C21.263 82.4609 21.7578 82.3906 22.3047 82.3906C22.9609 82.3906 23.5443 82.5 24.0547 82.7188C24.5651 82.9375 24.9661 83.2656 25.2578 83.7031C25.5547 84.1406 25.7031 84.6875 25.7031 85.3438V88.9609C25.7031 89.4245 25.7318 89.8047 25.7891 90.1016C25.8464 90.3932 25.9297 90.6484 26.0391 90.8672V91H23.7656C23.6562 90.7708 23.5729 90.4844 23.5156 90.1406C23.4635 89.7917 23.4375 89.4427 23.4375 89.0938ZM23.7344 85.8516L23.75 87.125H22.4922C22.1953 87.125 21.9375 87.1589 21.7188 87.2266C21.5 87.2943 21.3203 87.3906 21.1797 87.5156C21.0391 87.6354 20.9349 87.776 20.8672 87.9375C20.8047 88.099 20.7734 88.276 20.7734 88.4688C20.7734 88.6615 20.8177 88.8359 20.9062 88.9922C20.9948 89.1432 21.1224 89.263 21.2891 89.3516C21.4557 89.4349 21.651 89.4766 21.875 89.4766C22.2135 89.4766 22.5078 89.4089 22.7578 89.2734C23.0078 89.138 23.2005 88.9714 23.3359 88.7734C23.4766 88.5755 23.5495 88.388 23.5547 88.2109L24.1484 89.1641C24.0651 89.3776 23.9505 89.599 23.8047 89.8281C23.6641 90.0573 23.4844 90.2734 23.2656 90.4766C23.0469 90.6745 22.7839 90.8385 22.4766 90.9688C22.1693 91.0938 21.8047 91.1562 21.3828 91.1562C20.8464 91.1562 20.3594 91.0495 19.9219 90.8359C19.4896 90.6172 19.1458 90.3177 18.8906 89.9375C18.6406 89.5521 18.5156 89.1146 18.5156 88.625C18.5156 88.1823 18.599 87.7891 18.7656 87.4453C18.9323 87.1016 19.1771 86.8125 19.5 86.5781C19.8281 86.3385 20.237 86.1589 20.7266 86.0391C21.2161 85.9141 21.7839 85.8516 22.4297 85.8516H23.7344ZM32.4297 89.1562V79H34.6953V91H32.6562L32.4297 89.1562ZM27.0859 86.875V86.7109C27.0859 86.0651 27.1589 85.4792 27.3047 84.9531C27.4505 84.4219 27.6641 83.9661 27.9453 83.5859C28.2266 83.2057 28.5729 82.9115 28.9844 82.7031C29.3958 82.4948 29.8646 82.3906 30.3906 82.3906C30.8854 82.3906 31.3177 82.4948 31.6875 82.7031C32.0625 82.9115 32.3802 83.2083 32.6406 83.5938C32.9062 83.974 33.1198 84.4245 33.2812 84.9453C33.4427 85.4609 33.5599 86.026 33.6328 86.6406V87C33.5599 87.5885 33.4427 88.1354 33.2812 88.6406C33.1198 89.1458 32.9062 89.5885 32.6406 89.9688C32.3802 90.3438 32.0625 90.6354 31.6875 90.8438C31.3125 91.0521 30.875 91.1562 30.375 91.1562C29.849 91.1562 29.3802 91.0495 28.9688 90.8359C28.5625 90.6224 28.2188 90.3229 27.9375 89.9375C27.6615 89.5521 27.4505 89.099 27.3047 88.5781C27.1589 88.0573 27.0859 87.4896 27.0859 86.875ZM29.3359 86.7109V86.875C29.3359 87.224 29.362 87.5495 29.4141 87.8516C29.4714 88.1536 29.5625 88.4219 29.6875 88.6562C29.8177 88.8854 29.9844 89.0651 30.1875 89.1953C30.3958 89.3203 30.6484 89.3828 30.9453 89.3828C31.3307 89.3828 31.6484 89.2969 31.8984 89.125C32.1484 88.9479 32.3385 88.7057 32.4688 88.3984C32.6042 88.0911 32.6823 87.737 32.7031 87.3359V86.3125C32.6875 85.9844 32.6406 85.6901 32.5625 85.4297C32.4896 85.1641 32.3802 84.9375 32.2344 84.75C32.0938 84.5625 31.9167 84.4167 31.7031 84.3125C31.4948 84.2083 31.2474 84.1562 30.9609 84.1562C30.6693 84.1562 30.4193 84.224 30.2109 84.3594C30.0026 84.4896 29.8333 84.6693 29.7031 84.8984C29.5781 85.1276 29.4844 85.3984 29.4219 85.7109C29.3646 86.0182 29.3359 86.3516 29.3359 86.7109ZM38.8281 82.5469V91H36.5703V82.5469H38.8281ZM36.4297 80.3438C36.4297 80.0156 36.5443 79.7448 36.7734 79.5312C37.0026 79.3177 37.3099 79.2109 37.6953 79.2109C38.0755 79.2109 38.3802 79.3177 38.6094 79.5312C38.8438 79.7448 38.9609 80.0156 38.9609 80.3438C38.9609 80.6719 38.8438 80.9427 38.6094 81.1562C38.3802 81.3698 38.0755 81.4766 37.6953 81.4766C37.3099 81.4766 37.0026 81.3698 36.7734 81.1562C36.5443 80.9427 36.4297 80.6719 36.4297 80.3438ZM44.1797 89.3984C44.4557 89.3984 44.7005 89.3464 44.9141 89.2422C45.1276 89.1328 45.2943 88.9818 45.4141 88.7891C45.5391 88.5911 45.6042 88.3594 45.6094 88.0938H47.7266C47.7214 88.6875 47.5625 89.2161 47.25 89.6797C46.9375 90.138 46.5182 90.5 45.9922 90.7656C45.4661 91.026 44.8776 91.1562 44.2266 91.1562C43.5703 91.1562 42.9974 91.0469 42.5078 90.8281C42.0234 90.6094 41.6198 90.3073 41.2969 89.9219C40.974 89.5312 40.7318 89.0781 40.5703 88.5625C40.4089 88.0417 40.3281 87.4844 40.3281 86.8906V86.6641C40.3281 86.0651 40.4089 85.5078 40.5703 84.9922C40.7318 84.4714 40.974 84.0182 41.2969 83.6328C41.6198 83.2422 42.0234 82.9375 42.5078 82.7188C42.9922 82.5 43.5599 82.3906 44.2109 82.3906C44.9036 82.3906 45.5104 82.5234 46.0312 82.7891C46.5573 83.0547 46.9688 83.4349 47.2656 83.9297C47.5677 84.4193 47.7214 85 47.7266 85.6719H45.6094C45.6042 85.3906 45.5443 85.1354 45.4297 84.9062C45.3203 84.6771 45.1589 84.4948 44.9453 84.3594C44.737 84.2188 44.4792 84.1484 44.1719 84.1484C43.8438 84.1484 43.5755 84.2188 43.3672 84.3594C43.1589 84.4948 42.9974 84.6823 42.8828 84.9219C42.7682 85.1562 42.6875 85.4245 42.6406 85.7266C42.599 86.0234 42.5781 86.3359 42.5781 86.6641V86.8906C42.5781 87.2188 42.599 87.5339 42.6406 87.8359C42.6823 88.138 42.7604 88.4062 42.875 88.6406C42.9948 88.875 43.1589 89.0599 43.3672 89.1953C43.5755 89.3307 43.8464 89.3984 44.1797 89.3984ZM51.4062 82.5469V91H49.1484V82.5469H51.4062ZM49.0078 80.3438C49.0078 80.0156 49.1224 79.7448 49.3516 79.5312C49.5807 79.3177 49.888 79.2109 50.2734 79.2109C50.6536 79.2109 50.9583 79.3177 51.1875 79.5312C51.4219 79.7448 51.5391 80.0156 51.5391 80.3438C51.5391 80.6719 51.4219 80.9427 51.1875 81.1562C50.9583 81.3698 50.6536 81.4766 50.2734 81.4766C49.888 81.4766 49.5807 81.3698 49.3516 81.1562C49.1224 80.9427 49.0078 80.6719 49.0078 80.3438ZM52.9062 86.8594V86.6953C52.9062 86.0755 52.9948 85.5052 53.1719 84.9844C53.349 84.4583 53.6068 84.0026 53.9453 83.6172C54.2839 83.2318 54.7005 82.9323 55.1953 82.7188C55.6901 82.5 56.2578 82.3906 56.8984 82.3906C57.5391 82.3906 58.1094 82.5 58.6094 82.7188C59.1094 82.9323 59.5286 83.2318 59.8672 83.6172C60.2109 84.0026 60.4714 84.4583 60.6484 84.9844C60.8255 85.5052 60.9141 86.0755 60.9141 86.6953V86.8594C60.9141 87.474 60.8255 88.0443 60.6484 88.5703C60.4714 89.0911 60.2109 89.5469 59.8672 89.9375C59.5286 90.3229 59.112 90.6224 58.6172 90.8359C58.1224 91.0495 57.5547 91.1562 56.9141 91.1562C56.2734 91.1562 55.7031 91.0495 55.2031 90.8359C54.7083 90.6224 54.2891 90.3229 53.9453 89.9375C53.6068 89.5469 53.349 89.0911 53.1719 88.5703C52.9948 88.0443 52.9062 87.474 52.9062 86.8594ZM55.1562 86.6953V86.8594C55.1562 87.2135 55.1875 87.5443 55.25 87.8516C55.3125 88.1589 55.4115 88.4297 55.5469 88.6641C55.6875 88.8932 55.8698 89.0729 56.0938 89.2031C56.3177 89.3333 56.5911 89.3984 56.9141 89.3984C57.2266 89.3984 57.4948 89.3333 57.7188 89.2031C57.9427 89.0729 58.1224 88.8932 58.2578 88.6641C58.3932 88.4297 58.4922 88.1589 58.5547 87.8516C58.6224 87.5443 58.6562 87.2135 58.6562 86.8594V86.6953C58.6562 86.3516 58.6224 86.0286 58.5547 85.7266C58.4922 85.4193 58.3906 85.1484 58.25 84.9141C58.1146 84.6745 57.9349 84.487 57.7109 84.3516C57.487 84.2161 57.2161 84.1484 56.8984 84.1484C56.5807 84.1484 56.3099 84.2161 56.0859 84.3516C55.8672 84.487 55.6875 84.6745 55.5469 84.9141C55.4115 85.1484 55.3125 85.4193 55.25 85.7266C55.1875 86.0286 55.1562 86.3516 55.1562 86.6953ZM64.5 84.3516V91H62.25V82.5469H64.3594L64.5 84.3516ZM64.1719 86.4766H63.5625C63.5625 85.8516 63.6432 85.2891 63.8047 84.7891C63.9661 84.2839 64.1927 83.8542 64.4844 83.5C64.776 83.1406 65.1224 82.8672 65.5234 82.6797C65.9297 82.487 66.3828 82.3906 66.8828 82.3906C67.2786 82.3906 67.6406 82.4479 67.9688 82.5625C68.2969 82.6771 68.5781 82.8594 68.8125 83.1094C69.0521 83.3594 69.2344 83.6901 69.3594 84.1016C69.4896 84.513 69.5547 85.0156 69.5547 85.6094V91H67.2891V85.6016C67.2891 85.2266 67.237 84.9349 67.1328 84.7266C67.0286 84.5182 66.875 84.3724 66.6719 84.2891C66.474 84.2005 66.2292 84.1562 65.9375 84.1562C65.6354 84.1562 65.3724 84.2161 65.1484 84.3359C64.9297 84.4557 64.7474 84.6224 64.6016 84.8359C64.4609 85.0443 64.3542 85.2891 64.2812 85.5703C64.2083 85.8516 64.1719 86.1536 64.1719 86.4766ZM75.8281 89.0938V85.3281C75.8281 85.0573 75.7839 84.8255 75.6953 84.6328C75.6068 84.4349 75.4688 84.2812 75.2812 84.1719C75.099 84.0625 74.862 84.0078 74.5703 84.0078C74.3203 84.0078 74.1042 84.0521 73.9219 84.1406C73.7396 84.224 73.599 84.3464 73.5 84.5078C73.401 84.6641 73.3516 84.849 73.3516 85.0625H71.1016C71.1016 84.7031 71.1849 84.362 71.3516 84.0391C71.5182 83.7161 71.7604 83.4323 72.0781 83.1875C72.3958 82.9375 72.7734 82.7422 73.2109 82.6016C73.6536 82.4609 74.1484 82.3906 74.6953 82.3906C75.3516 82.3906 75.9349 82.5 76.4453 82.7188C76.9557 82.9375 77.3568 83.2656 77.6484 83.7031C77.9453 84.1406 78.0938 84.6875 78.0938 85.3438V88.9609C78.0938 89.4245 78.1224 89.8047 78.1797 90.1016C78.237 90.3932 78.3203 90.6484 78.4297 90.8672V91H76.1562C76.0469 90.7708 75.9635 90.4844 75.9062 90.1406C75.8542 89.7917 75.8281 89.4427 75.8281 89.0938ZM76.125 85.8516L76.1406 87.125H74.8828C74.5859 87.125 74.3281 87.1589 74.1094 87.2266C73.8906 87.2943 73.7109 87.3906 73.5703 87.5156C73.4297 87.6354 73.3255 87.776 73.2578 87.9375C73.1953 88.099 73.1641 88.276 73.1641 88.4688C73.1641 88.6615 73.2083 88.8359 73.2969 88.9922C73.3854 89.1432 73.513 89.263 73.6797 89.3516C73.8464 89.4349 74.0417 89.4766 74.2656 89.4766C74.6042 89.4766 74.8984 89.4089 75.1484 89.2734C75.3984 89.138 75.5911 88.9714 75.7266 88.7734C75.8672 88.5755 75.9401 88.388 75.9453 88.2109L76.5391 89.1641C76.4557 89.3776 76.3411 89.599 76.1953 89.8281C76.0547 90.0573 75.875 90.2734 75.6562 90.4766C75.4375 90.6745 75.1745 90.8385 74.8672 90.9688C74.5599 91.0938 74.1953 91.1562 73.7734 91.1562C73.237 91.1562 72.75 91.0495 72.3125 90.8359C71.8802 90.6172 71.5365 90.3177 71.2812 89.9375C71.0312 89.5521 70.9062 89.1146 70.9062 88.625C70.9062 88.1823 70.9896 87.7891 71.1562 87.4453C71.3229 87.1016 71.5677 86.8125 71.8906 86.5781C72.2188 86.3385 72.6276 86.1589 73.1172 86.0391C73.6068 85.9141 74.1745 85.8516 74.8203 85.8516H76.125ZM82.0781 84.3906V91H79.8281V82.5469H81.9453L82.0781 84.3906ZM84.625 82.4922L84.5859 84.5781C84.4766 84.5625 84.3438 84.5495 84.1875 84.5391C84.0365 84.5234 83.8984 84.5156 83.7734 84.5156C83.4557 84.5156 83.1797 84.5573 82.9453 84.6406C82.7161 84.7188 82.5234 84.8359 82.3672 84.9922C82.2161 85.1484 82.1016 85.3385 82.0234 85.5625C81.9505 85.7865 81.9089 86.0417 81.8984 86.3281L81.4453 86.1875C81.4453 85.6406 81.5 85.138 81.6094 84.6797C81.7188 84.2161 81.8776 83.8125 82.0859 83.4688C82.2995 83.125 82.5599 82.8594 82.8672 82.6719C83.1745 82.4844 83.526 82.3906 83.9219 82.3906C84.0469 82.3906 84.1745 82.401 84.3047 82.4219C84.4349 82.4375 84.5417 82.4609 84.625 82.4922ZM92.5391 91H90.2734V81.7969C90.2734 81.1562 90.3984 80.6172 90.6484 80.1797C90.9036 79.737 91.2604 79.4036 91.7188 79.1797C92.1823 78.9505 92.7318 78.8359 93.3672 78.8359C93.5755 78.8359 93.776 78.8516 93.9688 78.8828C94.1615 78.9089 94.349 78.9427 94.5312 78.9844L94.5078 80.6797C94.4089 80.6536 94.3047 80.6354 94.1953 80.625C94.0859 80.6146 93.9583 80.6094 93.8125 80.6094C93.5417 80.6094 93.3099 80.6562 93.1172 80.75C92.9297 80.8385 92.7865 80.9714 92.6875 81.1484C92.5885 81.3255 92.5391 81.5417 92.5391 81.7969V91ZM94.2266 82.5469V84.1406H89.0156V82.5469H94.2266ZM95.0469 86.8594V86.6953C95.0469 86.0755 95.1354 85.5052 95.3125 84.9844C95.4896 84.4583 95.7474 84.0026 96.0859 83.6172C96.4245 83.2318 96.8411 82.9323 97.3359 82.7188C97.8307 82.5 98.3984 82.3906 99.0391 82.3906C99.6797 82.3906 100.25 82.5 100.75 82.7188C101.25 82.9323 101.669 83.2318 102.008 83.6172C102.352 84.0026 102.612 84.4583 102.789 84.9844C102.966 85.5052 103.055 86.0755 103.055 86.6953V86.8594C103.055 87.474 102.966 88.0443 102.789 88.5703C102.612 89.0911 102.352 89.5469 102.008 89.9375C101.669 90.3229 101.253 90.6224 100.758 90.8359C100.263 91.0495 99.6953 91.1562 99.0547 91.1562C98.4141 91.1562 97.8438 91.0495 97.3438 90.8359C96.849 90.6224 96.4297 90.3229 96.0859 89.9375C95.7474 89.5469 95.4896 89.0911 95.3125 88.5703C95.1354 88.0443 95.0469 87.474 95.0469 86.8594ZM97.2969 86.6953V86.8594C97.2969 87.2135 97.3281 87.5443 97.3906 87.8516C97.4531 88.1589 97.5521 88.4297 97.6875 88.6641C97.8281 88.8932 98.0104 89.0729 98.2344 89.2031C98.4583 89.3333 98.7318 89.3984 99.0547 89.3984C99.3672 89.3984 99.6354 89.3333 99.8594 89.2031C100.083 89.0729 100.263 88.8932 100.398 88.6641C100.534 88.4297 100.633 88.1589 100.695 87.8516C100.763 87.5443 100.797 87.2135 100.797 86.8594V86.6953C100.797 86.3516 100.763 86.0286 100.695 85.7266C100.633 85.4193 100.531 85.1484 100.391 84.9141C100.255 84.6745 100.076 84.487 99.8516 84.3516C99.6276 84.2161 99.3568 84.1484 99.0391 84.1484C98.7214 84.1484 98.4505 84.2161 98.2266 84.3516C98.0078 84.487 97.8281 84.6745 97.6875 84.9141C97.5521 85.1484 97.4531 85.4193 97.3906 85.7266C97.3281 86.0286 97.2969 86.3516 97.2969 86.6953ZM108.578 82.5469V84.1406H103.656V82.5469H108.578ZM104.875 80.4609H107.125V88.4531C107.125 88.6979 107.156 88.8854 107.219 89.0156C107.286 89.1458 107.385 89.237 107.516 89.2891C107.646 89.3359 107.81 89.3594 108.008 89.3594C108.148 89.3594 108.273 89.3542 108.383 89.3438C108.497 89.3281 108.594 89.3125 108.672 89.2969L108.68 90.9531C108.487 91.0156 108.279 91.0651 108.055 91.1016C107.831 91.138 107.583 91.1562 107.312 91.1562C106.818 91.1562 106.385 91.0755 106.016 90.9141C105.651 90.7474 105.37 90.4818 105.172 90.1172C104.974 89.7526 104.875 89.2734 104.875 88.6797V80.4609ZM109.297 86.8594V86.6953C109.297 86.0755 109.385 85.5052 109.562 84.9844C109.74 84.4583 109.997 84.0026 110.336 83.6172C110.674 83.2318 111.091 82.9323 111.586 82.7188C112.081 82.5 112.648 82.3906 113.289 82.3906C113.93 82.3906 114.5 82.5 115 82.7188C115.5 82.9323 115.919 83.2318 116.258 83.6172C116.602 84.0026 116.862 84.4583 117.039 84.9844C117.216 85.5052 117.305 86.0755 117.305 86.6953V86.8594C117.305 87.474 117.216 88.0443 117.039 88.5703C116.862 89.0911 116.602 89.5469 116.258 89.9375C115.919 90.3229 115.503 90.6224 115.008 90.8359C114.513 91.0495 113.945 91.1562 113.305 91.1562C112.664 91.1562 112.094 91.0495 111.594 90.8359C111.099 90.6224 110.68 90.3229 110.336 89.9375C109.997 89.5469 109.74 89.0911 109.562 88.5703C109.385 88.0443 109.297 87.474 109.297 86.8594ZM111.547 86.6953V86.8594C111.547 87.2135 111.578 87.5443 111.641 87.8516C111.703 88.1589 111.802 88.4297 111.938 88.6641C112.078 88.8932 112.26 89.0729 112.484 89.2031C112.708 89.3333 112.982 89.3984 113.305 89.3984C113.617 89.3984 113.885 89.3333 114.109 89.2031C114.333 89.0729 114.513 88.8932 114.648 88.6641C114.784 88.4297 114.883 88.1589 114.945 87.8516C115.013 87.5443 115.047 87.2135 115.047 86.8594V86.6953C115.047 86.3516 115.013 86.0286 114.945 85.7266C114.883 85.4193 114.781 85.1484 114.641 84.9141C114.505 84.6745 114.326 84.487 114.102 84.3516C113.878 84.2161 113.607 84.1484 113.289 84.1484C112.971 84.1484 112.701 84.2161 112.477 84.3516C112.258 84.487 112.078 84.6745 111.938 84.9141C111.802 85.1484 111.703 85.4193 111.641 85.7266C111.578 86.0286 111.547 86.3516 111.547 86.6953Z" fill="white"/>
<defs>
<linearGradient id="paint0_linear_27_975" x1="36.2396" y1="27.378" x2="33.4135" y2="87.079" gradientUnits="userSpaceOnUse">
<stop stop-color="#FBDF79"/>
<stop offset="0.00397695" stop-color="#FBE07A"/>
<stop offset="1" stop-color="#FFBC47"/>
</linearGradient>
<radialGradient id="paint1_radial_27_975" cx="0" cy="0" r="1" gradientUnits="userSpaceOnUse" gradientTransform="translate(27.5154 67.3179) scale(35.9726 35.9726)">
<stop stop-color="#FCCE38"/>
<stop offset="1" stop-color="#FF8000"/>
</radialGradient>
<linearGradient id="paint2_linear_27_975" x1="99.757" y1="27.378" x2="102.583" y2="87.079" gradientUnits="userSpaceOnUse">
<stop stop-color="#FBDF79"/>
<stop offset="0.00397695" stop-color="#FBE07A"/>
<stop offset="1" stop-color="#FFBC47"/>
</linearGradient>
<radialGradient id="paint3_radial_27_975" cx="0" cy="0" r="1" gradientUnits="userSpaceOnUse" gradientTransform="translate(108.5 67.3179) rotate(180) scale(35.9725 35.9725)">
<stop stop-color="#FCCE38"/>
<stop offset="1" stop-color="#FF8000"/>
</radialGradient>
<radialGradient id="paint4_radial_27_975" cx="0" cy="0" r="1" gradientUnits="userSpaceOnUse" gradientTransform="translate(78.3836 35.1724) scale(61.9476)">
<stop stop-color="#FBDF79"/>
<stop offset="0.00397695" stop-color="#FBE07A"/>
<stop offset="1" stop-color="#FFBC47"/>
</radialGradient>
<radialGradient id="paint5_radial_27_975" cx="0" cy="0" r="1" gradientUnits="userSpaceOnUse" gradientTransform="translate(74.4971 115.478) scale(99.6042 99.6042)">
<stop stop-color="#FBDF79"/>
<stop offset="0.00397695" stop-color="#FBE07A"/>
<stop offset="1" stop-color="#FFBC47"/>
</radialGradient>
<linearGradient id="paint6_linear_27_975" x1="35.7455" y1="33.7593" x2="35.7455" y2="168.948" gradientUnits="userSpaceOnUse">
<stop stop-color="#FCCE38"/>
<stop offset="1" stop-color="#FF8000"/>
</linearGradient>
<radialGradient id="paint7_radial_27_975" cx="0" cy="0" r="1" gradientUnits="userSpaceOnUse" gradientTransform="translate(39.1372 4.73101) rotate(105.816) scale(63.055 133.167)">
<stop stop-color="#E74A3A"/>
<stop offset="1" stop-color="#FF9D00"/>
</radialGradient>
<linearGradient id="paint8_linear_27_975" x1="100.253" y1="33.7593" x2="100.253" y2="168.948" gradientUnits="userSpaceOnUse">
<stop stop-color="#FCCE38"/>
<stop offset="1" stop-color="#FF8000"/>
</linearGradient>
<linearGradient id="paint9_linear_27_975" x1="67.9976" y1="133.811" x2="67.9976" y2="82.3381" gradientUnits="userSpaceOnUse">
<stop stop-color="#FBE07A"/>
<stop offset="1" stop-color="white"/>
</linearGradient>
<linearGradient id="paint10_linear_27_975" x1="67.9985" y1="91.8153" x2="67.9985" y2="114.388" gradientUnits="userSpaceOnUse">
<stop stop-color="#FBE07A"/>
<stop offset="1" stop-color="white"/>
</linearGradient>
<linearGradient id="paint11_linear_27_975" x1="67.9491" y1="101.691" x2="70.8761" y2="117.693" gradientUnits="userSpaceOnUse">
<stop stop-color="#FF6688"/>
<stop offset="1" stop-color="#FB9C9C"/>
</linearGradient>
<linearGradient id="paint12_linear_27_975" x1="68.874" y1="106.14" x2="65.6867" y2="90.2666" gradientUnits="userSpaceOnUse">
<stop stop-color="#FF6688"/>
<stop offset="1" stop-color="#B30B0B"/>
</linearGradient>
<linearGradient id="paint13_linear_27_975" x1="69.3932" y1="106.034" x2="66.2054" y2="90.1622" gradientUnits="userSpaceOnUse">
<stop stop-color="#FF6688"/>
<stop offset="1" stop-color="#B30B0B"/>
</linearGradient>
<linearGradient id="paint14_linear_27_975" x1="67.9986" y1="129.375" x2="67.9986" y2="84.7644" gradientUnits="userSpaceOnUse">
<stop stop-color="#FBE07A"/>
<stop offset="1" stop-color="white"/>
</linearGradient>
<radialGradient id="paint15_radial_27_975" cx="0" cy="0" r="1" gradientUnits="userSpaceOnUse" gradientTransform="translate(86.5577 70.6503) rotate(91.4444) scale(5.1424 4.1728)">
<stop stop-color="#512D00"/>
<stop offset="1" stop-color="#3C2200"/>
</radialGradient>
<radialGradient id="paint16_radial_27_975" cx="0" cy="0" r="1" gradientUnits="userSpaceOnUse" gradientTransform="translate(49.4393 70.7021) rotate(88.5556) scale(5.1424 4.17279)">
<stop stop-color="#512D00"/>
<stop offset="1" stop-color="#3C2200"/>
</radialGradient>
<linearGradient id="paint17_linear_27_975" x1="84.4806" y1="67.9218" x2="86.7249" y2="72.801" gradientUnits="userSpaceOnUse">
<stop stop-color="#A3541E"/>
<stop offset="1" stop-color="#512D00"/>
</linearGradient>
<linearGradient id="paint18_linear_27_975" x1="47.7559" y1="67.9218" x2="50.0003" y2="72.801" gradientUnits="userSpaceOnUse">
<stop stop-color="#A3541E"/>
<stop offset="1" stop-color="#512D00"/>
</linearGradient>
<radialGradient id="paint19_radial_27_975" cx="0" cy="0" r="1" gradientUnits="userSpaceOnUse" gradientTransform="translate(65.7832 59.4271) scale(50.9471 50.9471)">
<stop stop-color="#FCCE38"/>
<stop offset="1" stop-color="#FF8000" stop-opacity="0"/>
</radialGradient>
<linearGradient id="paint20_linear_27_975" x1="69.2303" y1="89.4464" x2="61.9885" y2="63.1286" gradientUnits="userSpaceOnUse">
<stop stop-color="#FF6688"/>
<stop offset="1" stop-color="#FB9C9C"/>
</linearGradient>
<linearGradient id="paint21_linear_27_975" x1="66.6975" y1="78.7132" x2="68.0346" y2="84.1639" gradientUnits="userSpaceOnUse">
<stop stop-color="#FF6688"/>
<stop offset="1" stop-color="#FB9C9C"/>
</linearGradient>
<linearGradient id="paint22_linear_27_975" x1="45.561" y1="148.572" x2="79.6004" y2="112.189" gradientUnits="userSpaceOnUse">
<stop stop-color="#FCCE38"/>
<stop offset="1" stop-color="#C86F34"/>
</linearGradient>
<linearGradient id="paint23_linear_27_975" x1="37.2695" y1="137.231" x2="73.3011" y2="111.37" gradientUnits="userSpaceOnUse">
<stop stop-color="#FCCE38"/>
<stop offset="1" stop-color="#C86F34"/>
</linearGradient>
<linearGradient id="paint24_linear_27_975" x1="61.0521" y1="144.355" x2="84.6915" y2="106.829" gradientUnits="userSpaceOnUse">
<stop stop-color="#FCCE38"/>
<stop offset="1" stop-color="#C86F34"/>
</linearGradient>
<linearGradient id="paint25_linear_27_975" x1="90.4308" y1="148.571" x2="56.3917" y2="112.188" gradientUnits="userSpaceOnUse">
<stop stop-color="#FCCE38"/>
<stop offset="1" stop-color="#C86F34"/>
</linearGradient>
<linearGradient id="paint26_linear_27_975" x1="98.7192" y1="137.257" x2="62.6881" y2="111.395" gradientUnits="userSpaceOnUse">
<stop stop-color="#FCCE38"/>
<stop offset="1" stop-color="#C86F34"/>
</linearGradient>
<linearGradient id="paint27_linear_27_975" x1="74.9378" y1="144.345" x2="51.2982" y2="106.819" gradientUnits="userSpaceOnUse">
<stop stop-color="#FCCE38"/>
<stop offset="1" stop-color="#C86F34"/>
</linearGradient>
<linearGradient id="paint28_linear_27_975" x1="87.0531" y1="-0.066576" x2="56.1833" y2="61.4448" gradientUnits="userSpaceOnUse">
<stop stop-color="#FBE07A"/>
<stop offset="1" stop-color="white"/>
</linearGradient>
</defs>
</svg>
